<mxfile host="app.diagrams.net" agent="Mozilla/5.0 (Windows NT 10.0; Win64; x64) AppleWebKit/537.36 (KHTML, like Gecko) Chrome/127.0.0.0 Safari/537.36" version="24.7.7">
  <diagram name="PÃ¡gina-1" id="0aykmzBQFzrhrvAtdoXJ">
    <mxGraphModel dx="1440" dy="780" grid="1" gridSize="10" guides="1" tooltips="1" connect="1" arrows="1" fold="1" page="1" pageScale="1" pageWidth="1169" pageHeight="827" math="0" shadow="0">
      <root>
        <mxCell id="0" />
        <mxCell id="1" parent="0" />
        <mxCell id="D3t5GSLkGJJTMsDcqO09-2" value="" style="shape=mxgraph.cisco.computers_and_peripherals.laptop;sketch=0;html=1;pointerEvents=1;dashed=0;fillColor=#036897;strokeColor=#ffffff;strokeWidth=2;verticalLabelPosition=bottom;verticalAlign=top;align=center;outlineConnect=0;" parent="1" vertex="1">
          <mxGeometry x="110" y="620" width="80" height="60" as="geometry" />
        </mxCell>
        <mxCell id="D-y9V79Wz05ahPcceiWv-24" style="edgeStyle=orthogonalEdgeStyle;rounded=0;orthogonalLoop=1;jettySize=auto;html=1;strokeWidth=3;endArrow=none;endFill=0;" edge="1" parent="1" source="D3t5GSLkGJJTMsDcqO09-4" target="D-y9V79Wz05ahPcceiWv-21">
          <mxGeometry relative="1" as="geometry" />
        </mxCell>
        <mxCell id="D3t5GSLkGJJTMsDcqO09-4" value="" style="shape=mxgraph.cisco.computers_and_peripherals.laptop;sketch=0;html=1;pointerEvents=1;dashed=0;fillColor=#036897;strokeColor=#ffffff;strokeWidth=2;verticalLabelPosition=bottom;verticalAlign=top;align=center;outlineConnect=0;" parent="1" vertex="1">
          <mxGeometry x="113" y="353.5" width="85" height="61" as="geometry" />
        </mxCell>
        <mxCell id="D3t5GSLkGJJTMsDcqO09-8" value="" style="shape=mxgraph.cisco.computers_and_peripherals.tablet;sketch=0;html=1;pointerEvents=1;dashed=0;fillColor=#036897;strokeColor=#ffffff;strokeWidth=2;verticalLabelPosition=bottom;verticalAlign=top;align=center;outlineConnect=0;" parent="1" vertex="1">
          <mxGeometry x="107" y="510" width="91" height="50" as="geometry" />
        </mxCell>
        <mxCell id="D-y9V79Wz05ahPcceiWv-28" style="edgeStyle=orthogonalEdgeStyle;rounded=0;orthogonalLoop=1;jettySize=auto;html=1;strokeWidth=3;endArrow=none;endFill=0;" edge="1" parent="1" source="D3t5GSLkGJJTMsDcqO09-9" target="D-y9V79Wz05ahPcceiWv-22">
          <mxGeometry relative="1" as="geometry" />
        </mxCell>
        <mxCell id="D3t5GSLkGJJTMsDcqO09-9" value="" style="shape=mxgraph.cisco.computers_and_peripherals.tablet;sketch=0;html=1;pointerEvents=1;dashed=0;fillColor=#036897;strokeColor=#ffffff;strokeWidth=2;verticalLabelPosition=bottom;verticalAlign=top;align=center;outlineConnect=0;" parent="1" vertex="1">
          <mxGeometry x="1040" y="359" width="91" height="50" as="geometry" />
        </mxCell>
        <mxCell id="D3t5GSLkGJJTMsDcqO09-10" value="" style="shape=mxgraph.cisco.computers_and_peripherals.pc;sketch=0;html=1;pointerEvents=1;dashed=0;fillColor=#036897;strokeColor=#ffffff;strokeWidth=2;verticalLabelPosition=bottom;verticalAlign=top;align=center;outlineConnect=0;" parent="1" vertex="1">
          <mxGeometry x="1052" y="220" width="78" height="70" as="geometry" />
        </mxCell>
        <mxCell id="D3t5GSLkGJJTMsDcqO09-11" value="" style="shape=mxgraph.cisco.computers_and_peripherals.pc;sketch=0;html=1;pointerEvents=1;dashed=0;fillColor=#036897;strokeColor=#ffffff;strokeWidth=2;verticalLabelPosition=bottom;verticalAlign=top;align=center;outlineConnect=0;" parent="1" vertex="1">
          <mxGeometry x="1052" y="610" width="78" height="80" as="geometry" />
        </mxCell>
        <mxCell id="D-y9V79Wz05ahPcceiWv-23" style="edgeStyle=orthogonalEdgeStyle;rounded=0;orthogonalLoop=1;jettySize=auto;html=1;strokeWidth=3;endArrow=none;endFill=0;" edge="1" parent="1" source="D-y9V79Wz05ahPcceiWv-56" target="D-y9V79Wz05ahPcceiWv-21">
          <mxGeometry relative="1" as="geometry" />
        </mxCell>
        <mxCell id="D3t5GSLkGJJTMsDcqO09-12" value="" style="shape=mxgraph.cisco.computers_and_peripherals.pc;sketch=0;html=1;pointerEvents=1;dashed=0;fillColor=#036897;strokeColor=#ffffff;strokeWidth=2;verticalLabelPosition=bottom;verticalAlign=top;align=center;outlineConnect=0;" parent="1" vertex="1">
          <mxGeometry x="120" y="210" width="78" height="70" as="geometry" />
        </mxCell>
        <mxCell id="D3t5GSLkGJJTMsDcqO09-42" value="" style="shape=mxgraph.cisco.computers_and_peripherals.laptop;sketch=0;html=1;pointerEvents=1;dashed=0;fillColor=#036897;strokeColor=#ffffff;strokeWidth=2;verticalLabelPosition=bottom;verticalAlign=top;align=center;outlineConnect=0;" parent="1" vertex="1">
          <mxGeometry x="1039" y="499" width="90" height="61" as="geometry" />
        </mxCell>
        <mxCell id="D-y9V79Wz05ahPcceiWv-2" value="" style="shape=mxgraph.cisco.routers.wireless_router;sketch=0;html=1;pointerEvents=1;dashed=0;fillColor=#036897;strokeColor=#ffffff;strokeWidth=2;verticalLabelPosition=bottom;verticalAlign=top;align=center;outlineConnect=0;" vertex="1" parent="1">
          <mxGeometry x="580" y="344" width="78" height="77" as="geometry" />
        </mxCell>
        <mxCell id="D-y9V79Wz05ahPcceiWv-31" style="edgeStyle=orthogonalEdgeStyle;rounded=0;orthogonalLoop=1;jettySize=auto;html=1;strokeWidth=3;endArrow=none;endFill=0;" edge="1" parent="1" source="D-y9V79Wz05ahPcceiWv-21" target="D-y9V79Wz05ahPcceiWv-2">
          <mxGeometry relative="1" as="geometry" />
        </mxCell>
        <mxCell id="D-y9V79Wz05ahPcceiWv-21" value="" style="shape=mxgraph.cisco.servers.standard_host;sketch=0;html=1;pointerEvents=1;dashed=0;fillColor=#036897;strokeColor=#ffffff;strokeWidth=2;verticalLabelPosition=bottom;verticalAlign=top;align=center;outlineConnect=0;" vertex="1" parent="1">
          <mxGeometry x="400" y="340" width="60" height="88" as="geometry" />
        </mxCell>
        <mxCell id="D-y9V79Wz05ahPcceiWv-22" value="" style="shape=mxgraph.cisco.servers.standard_host;sketch=0;html=1;pointerEvents=1;dashed=0;fillColor=#036897;strokeColor=#ffffff;strokeWidth=2;verticalLabelPosition=bottom;verticalAlign=top;align=center;outlineConnect=0;" vertex="1" parent="1">
          <mxGeometry x="790" y="343.5" width="50" height="81" as="geometry" />
        </mxCell>
        <mxCell id="D-y9V79Wz05ahPcceiWv-25" style="edgeStyle=orthogonalEdgeStyle;rounded=0;orthogonalLoop=1;jettySize=auto;html=1;entryX=0.5;entryY=1;entryDx=0;entryDy=0;entryPerimeter=0;strokeWidth=3;endArrow=none;endFill=0;" edge="1" parent="1" source="D3t5GSLkGJJTMsDcqO09-8" target="D-y9V79Wz05ahPcceiWv-21">
          <mxGeometry relative="1" as="geometry" />
        </mxCell>
        <mxCell id="D-y9V79Wz05ahPcceiWv-26" style="edgeStyle=orthogonalEdgeStyle;rounded=0;orthogonalLoop=1;jettySize=auto;html=1;entryX=0.5;entryY=1;entryDx=0;entryDy=0;entryPerimeter=0;strokeWidth=3;endArrow=none;endFill=0;" edge="1" parent="1" source="D3t5GSLkGJJTMsDcqO09-2" target="D-y9V79Wz05ahPcceiWv-21">
          <mxGeometry relative="1" as="geometry" />
        </mxCell>
        <mxCell id="D-y9V79Wz05ahPcceiWv-27" style="edgeStyle=orthogonalEdgeStyle;rounded=0;orthogonalLoop=1;jettySize=auto;html=1;entryX=0.5;entryY=0;entryDx=0;entryDy=0;entryPerimeter=0;strokeWidth=3;endArrow=none;endFill=0;" edge="1" parent="1" source="D-y9V79Wz05ahPcceiWv-59" target="D-y9V79Wz05ahPcceiWv-22">
          <mxGeometry relative="1" as="geometry" />
        </mxCell>
        <mxCell id="D-y9V79Wz05ahPcceiWv-29" style="edgeStyle=orthogonalEdgeStyle;rounded=0;orthogonalLoop=1;jettySize=auto;html=1;entryX=0.5;entryY=1;entryDx=0;entryDy=0;entryPerimeter=0;strokeWidth=3;endArrow=none;endFill=0;" edge="1" parent="1" source="D3t5GSLkGJJTMsDcqO09-42" target="D-y9V79Wz05ahPcceiWv-22">
          <mxGeometry relative="1" as="geometry" />
        </mxCell>
        <mxCell id="D-y9V79Wz05ahPcceiWv-30" style="edgeStyle=orthogonalEdgeStyle;rounded=0;orthogonalLoop=1;jettySize=auto;html=1;entryX=0.5;entryY=1;entryDx=0;entryDy=0;entryPerimeter=0;strokeWidth=3;endArrow=none;endFill=0;" edge="1" parent="1" source="D3t5GSLkGJJTMsDcqO09-11" target="D-y9V79Wz05ahPcceiWv-22">
          <mxGeometry relative="1" as="geometry" />
        </mxCell>
        <mxCell id="D-y9V79Wz05ahPcceiWv-32" style="edgeStyle=orthogonalEdgeStyle;rounded=0;orthogonalLoop=1;jettySize=auto;html=1;entryX=1;entryY=0.5;entryDx=0;entryDy=0;entryPerimeter=0;strokeWidth=3;endArrow=none;endFill=0;" edge="1" parent="1" source="D-y9V79Wz05ahPcceiWv-22" target="D-y9V79Wz05ahPcceiWv-2">
          <mxGeometry relative="1" as="geometry" />
        </mxCell>
        <mxCell id="D-y9V79Wz05ahPcceiWv-39" value="Computaor 2&amp;nbsp;&lt;div style=&quot;text-align: left; font-size: 16px;&quot;&gt;IP &lt;font style=&quot;font-size: 16px;&quot; face=&quot;gg sans, Noto Sans, Helvetica Neue, Helvetica, Arial, sans-serif, Apple Symbols&quot; color=&quot;oklab(0.899401 -0.00192499 -0.00481987)&quot;&gt;&lt;span style=&quot;font-size: 16px; white-space: break-spaces; background-color: oklab(0.0852327 0.00000386313 0.00000170618 / 0.06);&quot;&gt;192.168.1.2&lt;/span&gt;&lt;/font&gt;&lt;/div&gt;" style="text;html=1;align=center;verticalAlign=middle;resizable=0;points=[];autosize=1;strokeColor=none;fillColor=none;fontSize=16;" vertex="1" parent="1">
          <mxGeometry x="95" y="168" width="130" height="50" as="geometry" />
        </mxCell>
        <mxCell id="D-y9V79Wz05ahPcceiWv-40" value="Computador 3&lt;div style=&quot;font-size: 16px;&quot;&gt;IP: 192.168.1.3&lt;/div&gt;" style="text;html=1;align=center;verticalAlign=middle;resizable=0;points=[];autosize=1;strokeColor=none;fillColor=none;fontSize=16;" vertex="1" parent="1">
          <mxGeometry x="92" y="299" width="130" height="50" as="geometry" />
        </mxCell>
        <mxCell id="D-y9V79Wz05ahPcceiWv-42" value="Coputador 4&lt;div style=&quot;font-size: 16px;&quot;&gt;IP: 192.168.1.4&lt;/div&gt;" style="text;html=1;align=center;verticalAlign=middle;resizable=0;points=[];autosize=1;strokeColor=none;fillColor=none;fontSize=16;" vertex="1" parent="1">
          <mxGeometry x="95" y="458" width="130" height="50" as="geometry" />
        </mxCell>
        <mxCell id="D-y9V79Wz05ahPcceiWv-43" value="Computador 5&lt;div style=&quot;font-size: 16px;&quot;&gt;IP: 192.168.1.5&lt;/div&gt;" style="text;html=1;align=center;verticalAlign=middle;resizable=0;points=[];autosize=1;strokeColor=none;fillColor=none;strokeWidth=1;perimeterSpacing=0;fontSize=16;" vertex="1" parent="1">
          <mxGeometry x="98" y="565" width="130" height="50" as="geometry" />
        </mxCell>
        <mxCell id="D-y9V79Wz05ahPcceiWv-44" value="Computador 2&amp;nbsp;&lt;div style=&quot;font-size: 16px;&quot;&gt;IP: 192.168.2.2&lt;/div&gt;" style="text;html=1;align=center;verticalAlign=middle;resizable=0;points=[];autosize=1;strokeColor=none;fillColor=none;fontSize=16;" vertex="1" parent="1">
          <mxGeometry x="1025" y="178" width="130" height="50" as="geometry" />
        </mxCell>
        <mxCell id="D-y9V79Wz05ahPcceiWv-45" value="Computador 3&lt;div style=&quot;font-size: 16px;&quot;&gt;IP: 192.168.2.3&lt;/div&gt;" style="text;html=1;align=center;verticalAlign=middle;resizable=0;points=[];autosize=1;strokeColor=none;fillColor=none;fontSize=16;" vertex="1" parent="1">
          <mxGeometry x="1025" y="318" width="130" height="50" as="geometry" />
        </mxCell>
        <mxCell id="D-y9V79Wz05ahPcceiWv-46" value="Computador 3&lt;div style=&quot;font-size: 16px;&quot;&gt;IP: 192.168.2.4&lt;/div&gt;" style="text;html=1;align=center;verticalAlign=middle;resizable=0;points=[];autosize=1;strokeColor=none;fillColor=none;fontSize=16;" vertex="1" parent="1">
          <mxGeometry x="1025" y="458" width="130" height="50" as="geometry" />
        </mxCell>
        <mxCell id="D-y9V79Wz05ahPcceiWv-47" value="Computador 4&lt;div style=&quot;font-size: 16px;&quot;&gt;IP: 192.168.2.5&lt;/div&gt;" style="text;html=1;align=center;verticalAlign=middle;resizable=0;points=[];autosize=1;strokeColor=none;fillColor=none;fontSize=16;" vertex="1" parent="1">
          <mxGeometry x="1025" y="568" width="130" height="50" as="geometry" />
        </mxCell>
        <mxCell id="D-y9V79Wz05ahPcceiWv-48" value="Broadcast 2&amp;nbsp;&lt;div style=&quot;font-size: 16px;&quot;&gt;IP: 192168.2.7&lt;/div&gt;" style="text;html=1;align=center;verticalAlign=middle;resizable=0;points=[];autosize=1;strokeColor=none;fillColor=none;strokeWidth=1;fontSize=16;" vertex="1" parent="1">
          <mxGeometry x="750" y="725" width="130" height="50" as="geometry" />
        </mxCell>
        <mxCell id="D-y9V79Wz05ahPcceiWv-50" value="Broadcast 1&amp;nbsp;&lt;div style=&quot;font-size: 16px;&quot;&gt;IP: 192.168.1.7&lt;/div&gt;" style="text;html=1;align=center;verticalAlign=middle;resizable=0;points=[];autosize=1;strokeColor=none;fillColor=none;fontSize=16;" vertex="1" parent="1">
          <mxGeometry x="365" y="725" width="130" height="50" as="geometry" />
        </mxCell>
        <mxCell id="D-y9V79Wz05ahPcceiWv-52" style="edgeStyle=orthogonalEdgeStyle;rounded=0;orthogonalLoop=1;jettySize=auto;html=1;entryX=0.5;entryY=1;entryDx=0;entryDy=0;entryPerimeter=0;strokeWidth=3;endArrow=none;endFill=0;" edge="1" parent="1" source="D-y9V79Wz05ahPcceiWv-48" target="D-y9V79Wz05ahPcceiWv-22">
          <mxGeometry relative="1" as="geometry" />
        </mxCell>
        <mxCell id="D-y9V79Wz05ahPcceiWv-53" style="edgeStyle=orthogonalEdgeStyle;rounded=0;orthogonalLoop=1;jettySize=auto;html=1;entryX=0.5;entryY=1;entryDx=0;entryDy=0;entryPerimeter=0;strokeWidth=3;endArrow=none;endFill=0;" edge="1" parent="1" source="D-y9V79Wz05ahPcceiWv-50" target="D-y9V79Wz05ahPcceiWv-21">
          <mxGeometry relative="1" as="geometry" />
        </mxCell>
        <mxCell id="D-y9V79Wz05ahPcceiWv-57" value="" style="edgeStyle=orthogonalEdgeStyle;rounded=0;orthogonalLoop=1;jettySize=auto;html=1;strokeWidth=3;endArrow=none;endFill=0;" edge="1" parent="1" source="D3t5GSLkGJJTMsDcqO09-12" target="D-y9V79Wz05ahPcceiWv-56">
          <mxGeometry relative="1" as="geometry">
            <mxPoint x="198" y="245" as="sourcePoint" />
            <mxPoint x="430" y="340" as="targetPoint" />
          </mxGeometry>
        </mxCell>
        <mxCell id="D-y9V79Wz05ahPcceiWv-56" value="Servidor&amp;nbsp; 1&lt;div style=&quot;font-size: 16px;&quot;&gt;IP: 192.168.1.1&lt;/div&gt;" style="text;html=1;align=center;verticalAlign=middle;resizable=0;points=[];autosize=1;strokeColor=none;fillColor=none;fontSize=16;" vertex="1" parent="1">
          <mxGeometry x="365" y="283" width="130" height="50" as="geometry" />
        </mxCell>
        <mxCell id="D-y9V79Wz05ahPcceiWv-60" value="" style="edgeStyle=orthogonalEdgeStyle;rounded=0;orthogonalLoop=1;jettySize=auto;html=1;entryX=0.5;entryY=0;entryDx=0;entryDy=0;entryPerimeter=0;strokeWidth=3;endArrow=none;endFill=0;" edge="1" parent="1" source="D3t5GSLkGJJTMsDcqO09-10" target="D-y9V79Wz05ahPcceiWv-59">
          <mxGeometry relative="1" as="geometry">
            <mxPoint x="1052" y="255" as="sourcePoint" />
            <mxPoint x="815" y="344" as="targetPoint" />
          </mxGeometry>
        </mxCell>
        <mxCell id="D-y9V79Wz05ahPcceiWv-59" value="Servidor 2&lt;div style=&quot;font-size: 16px;&quot;&gt;IP: 192.168.2.1&lt;/div&gt;" style="text;html=1;align=center;verticalAlign=middle;resizable=0;points=[];autosize=1;strokeColor=none;fillColor=none;fontSize=16;" vertex="1" parent="1">
          <mxGeometry x="750" y="283" width="130" height="50" as="geometry" />
        </mxCell>
        <mxCell id="D-y9V79Wz05ahPcceiWv-61" value="Roteador(L3)&lt;div&gt;IP: 192.168.1.6&lt;/div&gt;" style="text;html=1;align=center;verticalAlign=middle;resizable=0;points=[];autosize=1;strokeColor=none;fillColor=none;fontSize=16;" vertex="1" parent="1">
          <mxGeometry x="555" y="268" width="130" height="50" as="geometry" />
        </mxCell>
        <mxCell id="D-y9V79Wz05ahPcceiWv-62" value="LAN 2:&amp;nbsp;&lt;div style=&quot;font-size: 23px;&quot;&gt;IP: 192.168.2.0/29&lt;/div&gt;" style="text;html=1;align=center;verticalAlign=middle;resizable=0;points=[];autosize=1;strokeColor=none;fillColor=none;fontSize=23;" vertex="1" parent="1">
          <mxGeometry x="865" y="40" width="210" height="70" as="geometry" />
        </mxCell>
        <mxCell id="D-y9V79Wz05ahPcceiWv-63" value="LAN 1&amp;nbsp;&lt;div style=&quot;font-size: 23px;&quot;&gt;IP: 192.168.1.0/29&lt;/div&gt;" style="text;html=1;align=center;verticalAlign=middle;resizable=0;points=[];autosize=1;strokeColor=none;fillColor=none;fontSize=23;" vertex="1" parent="1">
          <mxGeometry x="145" y="38" width="210" height="70" as="geometry" />
        </mxCell>
      </root>
    </mxGraphModel>
  </diagram>
</mxfile>
